{
  "source": "C:\\Users\\Peter\\Desktop\\stuff\\MIUN\\quantitative_research\\video_compression\\videos\\BVI-HD\\BricksLeaves_1920x1080_60fps.mp4",
  "output": "C:\\Users\\Peter\\Desktop\\stuff\\MIUN\\quantitative_research\\video_compression\\compressed_videos\\BVI-HD\\h264\\12\\BricksLeaves_1920x1080_60fps_h264.mp4",
  "codec": "h264",
  "ok": "Input #0, mov,mp4,m4a,3gp,3g2,mj2, from 'C:\\Users\\Peter\\Desktop\\stuff\\MIUN\\quantitative_research\\video_compression\\videos\\BVI-HD\\BricksLeaves_1920x1080_60fps.mp4':\n  Metadata:\n    major_brand     : isom\n    minor_version   : 512\n    compatible_brands: isomiso2avc1mp41\n    encoder         : Lavf54.28.101\n  Duration: 00:00:05.00, start: 0.000000, bitrate: 524627 kb/s\n  Stream #0:0[0x1](und): Video: h264 (High 4:4:4 Predictive) (avc1 / 0x31637661), yuv420p(progressive), 1920x1080, 524622 kb/s, 60 fps, 60 tbr, 60 tbn (default)\n    Metadata:\n      handler_name    : VideoHandler\n      vendor_id       : [0][0][0][0]\n[out#0/mp4 @ 00000252725b9c40] Codec AVOption b:a (set bitrate (in bits/s)) has not been used for any stream. The most likely reason is either wrong type (e.g. a video option with no video streams) or that it is a private option of some decoder which was not actually used for any stream.\nStream mapping:\n  Stream #0:0 -> #0:0 (h264 (native) -> h264 (libx264))\nPress [q] to stop, [?] for help\n[libx264 @ 0000025273170300] using cpu capabilities: MMX2 SSE2Fast SSSE3 SSE4.2 AVX FMA3 BMI2 AVX2\n[libx264 @ 0000025273170300] profile High, level 5.0, 4:2:0, 8-bit\n[libx264 @ 0000025273170300] 264 - core 165 r3222 b35605a - H.264/MPEG-4 AVC codec - Copyleft 2003-2025 - http://www.videolan.org/x264.html - options: cabac=1 ref=5 deblock=1:0:0 analyse=0x3:0x113 me=hex subme=8 psy=1 psy_rd=1.00:0.00 mixed_ref=1 me_range=16 chroma_me=1 trellis=2 8x8dct=1 cqm=0 deadzone=21,11 fast_pskip=1 chroma_qp_offset=-2 threads=18 lookahead_threads=3 sliced_threads=0 nr=0 decimate=1 interlaced=0 bluray_compat=0 constrained_intra=0 bframes=3 b_pyramid=2 b_adapt=1 b_bias=0 direct=3 weightb=1 open_gop=0 weightp=2 keyint=250 keyint_min=25 scenecut=40 intra_refresh=0 rc_lookahead=50 rc=cbr mbtree=1 bitrate=12000 ratetol=1.0 qcomp=0.60 qpmin=0 qpmax=69 qpstep=4 vbv_maxrate=12000 vbv_bufsize=12000 nal_hrd=none filler=0 ip_ratio=1.40 aq=1:1.00\nOutput #0, mp4, to 'C:\\Users\\Peter\\Desktop\\stuff\\MIUN\\quantitative_research\\video_compression\\compressed_videos\\BVI-HD\\h264\\12\\BricksLeaves_1920x1080_60fps_h264.mp4':\n  Metadata:\n    major_brand     : isom\n    minor_version   : 512\n    compatible_brands: isomiso2avc1mp41\n    encoder         : Lavf62.3.100\n  Stream #0:0(und): Video: h264 (avc1 / 0x31637661), yuv420p(tv, progressive), 1920x1080, q=2-31, 12000 kb/s, 60 fps, 15360 tbn (default)\n    Metadata:\n      encoder         : Lavc62.11.100 libx264\n      handler_name    : VideoHandler\n      vendor_id       : [0][0][0][0]\n    Side data:\n      cpb: bitrate max/min/avg: 12000000/0/12000000 buffer size: 12000000 vbv_delay: N/A\nframe=    0 fps=0.0 q=0.0 size=       0KiB time=N/A bitrate=N/A speed=N/A elapsed=0:00:01.31    \nframe=    0 fps=0.0 q=0.0 size=       0KiB time=N/A bitrate=N/A speed=N/A elapsed=0:00:01.95    \nframe=    0 fps=0.0 q=0.0 size=       0KiB time=N/A bitrate=N/A speed=N/A elapsed=0:00:02.55    \nframe=    0 fps=0.0 q=0.0 size=       0KiB time=N/A bitrate=N/A speed=N/A elapsed=0:00:03.21    \nframe=    0 fps=0.0 q=0.0 size=       0KiB time=N/A bitrate=N/A speed=N/A elapsed=0:00:03.91    \nframe=    0 fps=0.0 q=0.0 size=       0KiB time=N/A bitrate=N/A speed=N/A elapsed=0:00:04.55    \nframe=    8 fps=1.6 q=33.0 size=     256KiB time=00:00:00.10 bitrate=20975.4kbits/s speed=0.0197x elapsed=0:00:05.07    \nframe=   18 fps=3.2 q=29.0 size=     256KiB time=00:00:00.26 bitrate=7865.8kbits/s speed=0.0473x elapsed=0:00:05.63    \nframe=   30 fps=4.8 q=28.0 size=     512KiB time=00:00:00.46 bitrate=8988.6kbits/s speed=0.0746x elapsed=0:00:06.25    \nframe=   41 fps=6.0 q=29.0 size=     768KiB time=00:00:00.65 bitrate=9679.8kbits/s speed=0.0954x elapsed=0:00:06.81    \nframe=   49 fps=6.6 q=30.0 size=     768KiB time=00:00:00.78 bitrate=8032.1kbits/s speed=0.106x elapsed=0:00:07.42    \nframe=   57 fps=7.1 q=30.0 size=    1024KiB time=00:00:00.91 bitrate=9151.6kbits/s speed=0.114x elapsed=0:00:08.04    \nframe=   69 fps=8.0 q=29.0 size=    1280KiB time=00:00:01.11 bitrate=9390.6kbits/s speed=0.13x elapsed=0:00:08.59    \nframe=   77 fps=8.3 q=29.0 size=    1536KiB time=00:00:01.18 bitrate=10633.8kbits/s speed=0.128x elapsed=0:00:09.27    \nframe=   89 fps=8.9 q=30.0 size=    1792KiB time=00:00:01.45 bitrate=10124.4kbits/s speed=0.145x elapsed=0:00:09.98    \nframe=   89 fps=8.4 q=30.0 size=    1792KiB time=00:00:01.45 bitrate=10124.4kbits/s speed=0.136x elapsed=0:00:10.63    \nframe=  109 fps=9.7 q=30.0 size=    2304KiB time=00:00:01.71 bitrate=10995.0kbits/s speed=0.153x elapsed=0:00:11.21    \nframe=  121 fps= 10 q=29.0 size=    2560KiB time=00:00:01.91 bitrate=10941.9kbits/s speed=0.162x elapsed=0:00:11.85    \nframe=  134 fps= 11 q=29.0 size=    2816KiB time=00:00:02.18 bitrate=10566.0kbits/s speed=0.175x elapsed=0:00:12.49    \nframe=  145 fps= 11 q=29.0 size=    3072KiB time=00:00:02.38 bitrate=10559.2kbits/s speed=0.183x elapsed=0:00:13.05    \nframe=  153 fps= 11 q=30.0 size=    3328KiB time=00:00:02.51 bitrate=10833.1kbits/s speed=0.185x elapsed=0:00:13.57    \nframe=  172 fps= 12 q=29.0 size=    3840KiB time=00:00:02.76 bitrate=11370.2kbits/s speed=0.195x elapsed=0:00:14.16    \nframe=  177 fps= 12 q=29.0 size=    3840KiB time=00:00:02.85 bitrate=11037.8kbits/s speed=0.192x elapsed=0:00:14.80    \nframe=  193 fps= 13 q=30.0 size=    4096KiB time=00:00:03.11 bitrate=10766.2kbits/s speed=0.202x elapsed=0:00:15.42    \nframe=  201 fps= 13 q=30.0 size=    4352KiB time=00:00:03.31 bitrate=10749.3kbits/s speed=0.206x elapsed=0:00:16.06    \nframe=  213 fps= 13 q=31.0 size=    4608KiB time=00:00:03.51 bitrate=10734.3kbits/s speed=0.211x elapsed=0:00:16.67    \nframe=  233 fps= 13 q=33.0 size=    5120KiB time=00:00:03.80 bitrate=11037.7kbits/s speed=0.22x elapsed=0:00:17.27    \nframe=  246 fps= 14 q=34.0 size=    5376KiB time=00:00:03.93 bitrate=11196.8kbits/s speed=0.22x elapsed=0:00:17.84    \nframe=  250 fps= 14 q=34.0 size=    5376KiB time=00:00:04.13 bitrate=10655.0kbits/s speed=0.224x elapsed=0:00:18.43    \nframe=  259 fps= 14 q=36.0 size=    6144KiB time=00:00:04.26 bitrate=11796.6kbits/s speed=0.225x elapsed=0:00:18.95    \nframe=  271 fps= 14 q=36.0 size=    6400KiB time=00:00:04.43 bitrate=11826.1kbits/s speed=0.227x elapsed=0:00:19.51    \nframe=  279 fps= 14 q=35.0 size=    6656KiB time=00:00:04.58 bitrate=11896.7kbits/s speed=0.228x elapsed=0:00:20.12    \nframe=  291 fps= 14 q=-1.0 size=    7168KiB time=00:00:04.81 bitrate=12191.1kbits/s speed=0.232x elapsed=0:00:20.75    \n[mp4 @ 0000025272647bc0] Starting second pass: moving the moov atom to the beginning of the file\n[out#0/mp4 @ 00000252725b9c40] video:7551KiB audio:0KiB subtitle:0KiB other streams:0KiB global headers:0KiB muxing overhead: 0.058596%\nframe=  300 fps= 14 q=-1.0 Lsize=    7556KiB time=00:00:04.96 bitrate=12462.4kbits/s speed=0.233x elapsed=0:00:21.31    \n[libx264 @ 0000025273170300] frame I:2     Avg QP:27.29  size:336366\n[libx264 @ 0000025273170300] frame P:76    Avg QP:28.44  size: 46554\n[libx264 @ 0000025273170300] frame B:222   Avg QP:35.09  size: 15860\n[libx264 @ 0000025273170300] consecutive B-frames:  1.3%  0.0%  0.0% 98.7%\n[libx264 @ 0000025273170300] mb I  I16..4:  0.1% 98.2%  1.7%\n[libx264 @ 0000025273170300] mb P  I16..4:  0.1%  6.2%  0.5%  P16..4: 43.7%  9.7%  9.2%  0.0%  0.0%    skip:30.7%\n[libx264 @ 0000025273170300] mb B  I16..4:  0.0%  2.0%  0.1%  B16..8: 20.7%  4.4%  2.0%  direct: 4.0%  skip:66.8%  L0:50.8% L1:43.0% BI: 6.2%\n[libx264 @ 0000025273170300] 8x8 transform intra:93.8% inter:80.0%\n[libx264 @ 0000025273170300] direct mvs  spatial:95.5% temporal:4.5%\n[libx264 @ 0000025273170300] coded y,uvDC,uvAC intra: 91.3% 80.7% 37.1% inter: 15.3% 14.1% 1.4%\n[libx264 @ 0000025273170300] i16 v,h,dc,p: 12% 27%  5% 55%\n[libx264 @ 0000025273170300] i8 v,h,dc,ddl,ddr,vr,hd,vl,hu: 11% 13%  8%  9%  9%  9% 12% 14% 15%\n[libx264 @ 0000025273170300] i4 v,h,dc,ddl,ddr,vr,hd,vl,hu:  9% 10%  6% 10% 11% 11% 14% 13% 16%\n[libx264 @ 0000025273170300] i8c dc,h,v,p: 50% 18% 15% 16%\n[libx264 @ 0000025273170300] Weighted P-Frames: Y:0.0% UV:0.0%\n[libx264 @ 0000025273170300] ref P L0: 36.4% 12.0% 21.7% 14.0% 16.0%\n[libx264 @ 0000025273170300] ref B L0: 59.7% 21.9% 14.0%  4.4%\n[libx264 @ 0000025273170300] ref B L1: 83.9% 16.1%\n[libx264 @ 0000025273170300] kb/s:12370.86\n",
  "seconds": 22.70414924621582,
  "probe_out": {}
}